<?xml version="1.0" standalone="no"?>
<!DOCTYPE svg PUBLIC "-//W3C//DTD SVG 20010904//EN"
 "http://www.w3.org/TR/2001/REC-SVG-20010904/DTD/svg10.dtd">
<svg version="1.0" xmlns="http://www.w3.org/2000/svg"
 width="500.000000pt" height="500.000000pt" viewBox="0 0 500.000000 500.000000"
 preserveAspectRatio="xMidYMid meet">

<g transform="translate(0.000000,500.000000) scale(0.100000,-0.100000)"
fill="#000000" stroke="none">
<path d="M800 2731 c0 -5 8 -12 18 -15 11 -4 32 -47 62 -131 25 -69 50 -125
56 -125 14 0 14 2 60 135 20 55 44 107 55 117 27 23 24 28 -21 28 -40 0 -53
-13 -26 -23 12 -5 10 -22 -15 -96 -17 -50 -34 -91 -38 -91 -3 0 -21 41 -38 90
-27 76 -30 92 -18 96 32 13 12 24 -40 24 -30 0 -55 -4 -55 -9z"/>
<path d="M1116 2725 c-6 -17 16 -31 33 -21 13 9 2 36 -14 36 -7 0 -16 -7 -19
-15z"/>
<path d="M1405 2731 c-8 -15 3 -31 21 -31 9 0 14 7 12 17 -4 20 -24 28 -33 14z"/>
<path d="M2060 2731 c0 -5 7 -11 15 -15 12 -4 15 -27 15 -116 0 -89 -3 -112
-15 -116 -35 -14 -10 -24 55 -24 126 0 172 35 178 133 3 53 1 66 -19 91 -12
16 -37 35 -55 42 -37 15 -174 19 -174 5z m175 -35 c32 -32 42 -101 21 -151
-21 -49 -42 -64 -88 -65 l-38 0 0 120 0 120 40 0 c30 0 47 -7 65 -24z"/>
<path d="M2366 2725 c-6 -17 16 -31 33 -21 13 9 2 36 -14 36 -7 0 -16 -7 -19
-15z"/>
<path d="M3666 2725 c-6 -17 16 -31 33 -21 13 9 2 36 -14 36 -7 0 -16 -7 -19
-15z"/>
<path d="M1100 2640 c0 -5 5 -10 10 -10 6 0 10 -32 10 -75 0 -60 -3 -75 -15
-75 -8 0 -15 -4 -15 -10 0 -5 20 -10 45 -10 44 0 60 12 30 24 -12 4 -15 24
-15 86 0 79 0 80 -25 80 -14 0 -25 -4 -25 -10z"/>
<path d="M1236 2637 c-32 -23 -17 -68 32 -95 50 -28 57 -58 15 -68 -21 -6 -30
-2 -41 14 -18 27 -32 28 -32 3 0 -23 19 -31 71 -31 31 0 42 5 56 26 21 33 11
51 -45 82 -45 25 -56 56 -23 67 24 7 51 -4 51 -21 0 -8 5 -14 10 -14 16 0 11
37 -6 44 -26 10 -69 7 -88 -7z"/>
<path d="M1388 2638 c15 -15 17 -158 2 -158 -5 0 -10 -4 -10 -10 0 -5 21 -10
48 -10 41 1 45 2 30 14 -15 11 -18 29 -18 95 l0 81 -32 0 c-25 0 -29 -3 -20
-12z"/>
<path d="M1537 2630 c-32 -26 -44 -79 -27 -121 16 -37 37 -49 88 -49 56 0 83
25 89 82 5 42 3 50 -25 78 -37 36 -86 40 -125 10z m87 -6 c22 -21 29 -57 22
-99 -13 -70 -89 -70 -102 -1 -10 59 15 116 51 116 7 0 21 -7 29 -16z"/>
<path d="M1733 2635 c23 -17 25 -143 2 -151 -30 -12 -14 -24 30 -24 25 0 45 5
45 10 0 6 -7 10 -15 10 -13 0 -15 13 -13 73 l3 72 33 3 c27 3 34 -1 42 -23 16
-41 13 -115 -5 -121 -30 -12 -14 -24 33 -24 41 1 45 2 30 14 -14 10 -18 28
-18 78 0 87 -11 96 -109 96 -61 -1 -71 -3 -58 -13z"/>
<path d="M2350 2640 c0 -5 5 -10 10 -10 6 0 10 -32 10 -75 0 -60 -3 -75 -15
-75 -8 0 -15 -4 -15 -10 0 -5 20 -10 45 -10 44 0 60 12 30 24 -12 4 -15 24
-15 86 0 79 0 80 -25 80 -14 0 -25 -4 -25 -10z"/>
<path d="M2486 2637 c-32 -23 -17 -68 32 -95 50 -28 57 -58 15 -68 -21 -6 -30
-2 -41 14 -18 27 -32 28 -32 3 0 -23 19 -31 71 -31 31 0 42 5 56 26 21 33 11
51 -45 82 -45 25 -56 56 -23 67 24 7 51 -4 51 -21 0 -8 5 -14 10 -14 16 0 11
37 -6 44 -26 10 -69 7 -88 -7z"/>
<path d="M2667 2630 c-52 -41 -41 -151 16 -165 37 -10 100 -1 105 14 3 10 -2
11 -19 5 -61 -20 -92 4 -93 71 -1 38 4 50 23 66 30 25 46 24 71 -3 20 -22 20
-22 20 -1 0 38 -80 46 -123 13z"/>
<path d="M2857 2630 c-32 -26 -44 -79 -27 -121 16 -37 37 -49 88 -49 56 0 83
25 89 82 5 42 3 50 -25 78 -37 36 -86 40 -125 10z m87 -6 c22 -21 29 -57 22
-99 -13 -70 -89 -70 -102 -1 -10 59 15 116 51 116 7 0 21 -7 29 -16z"/>
<path d="M3035 2640 c-3 -5 0 -10 8 -10 9 0 27 -34 47 -85 43 -111 56 -111 94
-4 16 44 35 83 42 86 25 9 15 23 -16 23 -29 0 -42 -14 -19 -22 10 -3 -28 -118
-40 -118 -11 0 -51 115 -41 118 5 2 10 8 10 13 0 12 -77 12 -85 -1z"/>
<path d="M3303 2635 c-27 -19 -46 -75 -37 -109 9 -39 50 -66 98 -66 41 0 76
14 65 25 -4 3 -18 1 -33 -4 -47 -19 -86 9 -86 60 0 17 8 19 65 19 63 0 65 1
65 25 0 56 -84 87 -137 50z m78 -5 c11 -6 19 -21 19 -35 0 -23 -4 -25 -45 -25
-38 0 -45 3 -45 19 0 11 10 27 22 35 27 19 24 19 49 6z"/>
<path d="M3480 2639 c0 -5 5 -9 10 -9 6 0 10 -32 10 -75 0 -60 -3 -75 -15 -75
-8 0 -15 -4 -15 -10 0 -5 20 -10 45 -10 44 0 60 12 30 24 -13 5 -15 20 -13 73
l3 68 33 3 c24 2 32 -1 32 -12 0 -9 5 -16 10 -16 6 0 10 11 10 24 0 24 -2 25
-70 24 -38 0 -70 -4 -70 -9z"/>
<path d="M3650 2640 c0 -5 5 -10 10 -10 6 0 10 -32 10 -75 0 -60 -3 -75 -15
-75 -8 0 -15 -4 -15 -10 0 -5 20 -10 45 -10 44 0 60 12 30 24 -12 4 -15 24
-15 86 0 79 0 80 -25 80 -14 0 -25 -4 -25 -10z"/>
<path d="M3797 2630 c-45 -36 -47 -110 -4 -150 22 -22 99 -28 127 -10 22 14 6
22 -24 11 -37 -15 -71 1 -85 40 -6 17 -11 33 -11 35 0 2 30 4 68 6 60 3 67 5
70 24 4 29 -42 64 -83 64 -18 0 -44 -9 -58 -20z m84 0 c11 -6 19 -21 19 -35 0
-23 -4 -25 -45 -25 -38 0 -45 3 -45 19 0 11 10 27 22 35 27 19 24 19 49 6z"/>
<path d="M3990 2632 c-34 -27 -21 -66 29 -92 48 -24 57 -36 41 -55 -19 -22
-61 -19 -67 5 -7 27 -25 25 -21 -2 3 -20 10 -23 49 -26 53 -3 79 14 79 54 0
18 -9 30 -31 42 -17 9 -41 25 -53 34 -21 18 -21 18 -2 33 26 20 32 19 56 -5
19 -19 20 -19 20 -1 0 35 -63 43 -100 13z"/>
<path d="M4151 2491 c-15 -10 -8 -41 9 -41 15 0 25 29 14 40 -5 5 -15 5 -23 1z"/>
</g>
</svg>
